<?xml version="1.0" encoding="UTF-8"?>
<svg version="1.1" xmlns="http://www.w3.org/2000/svg" width="408" height="295">
<path d="M0 0 C5.60642233 5.56273592 6.63427913 12.01597656 6.74536133 19.54833984 C6.796295 35.97808805 4.41914558 52.79245731 -3.49609375 67.4921875 C-4.15609375 67.4921875 -4.81609375 67.4921875 -5.49609375 67.4921875 C-5.84220703 66.49638672 -5.84220703 66.49638672 -6.1953125 65.48046875 C-8.73673632 58.59953864 -11.10900143 54.45670104 -17.62109375 50.6796875 C-26.616223 47.29922856 -36.04583199 49.68661507 -44.49609375 53.4921875 C-51.50353973 57.47288791 -56.73614964 63.21803751 -59.80859375 70.6796875 C-60.6448464 75.31708857 -60.8850555 79.8956426 -61.0546875 84.6015625 C-61.52861756 87.70517531 -62.03991404 88.63204074 -64.49609375 90.4921875 C-70.8318524 88.22941655 -73.40100936 84.16796196 -76.49609375 78.4921875 C-81.59760107 67.56038609 -83.50939472 56.62665283 -79.52734375 44.95703125 C-70.0835573 22.38495076 -44.69566494 5.66214179 -22.87182617 -3.62451172 C-14.68034333 -6.67011699 -6.87145358 -5.38875014 0 0 Z " fill="#429AE1" transform="translate(121.49609375,110.5078125)"/>
<path d="M0 0 C4.79322822 2.44141063 9.44259502 4.8825444 13.64208984 8.27856445 C12.62501953 9.0055957 12.62501953 9.0055957 11.58740234 9.74731445 C-5.80229873 22.2717529 -19.78185265 33.15675656 -23.546875 55.09741211 C-23.82746744 56.82282763 -24.09419636 58.55048868 -24.35791016 60.27856445 C-25.34791016 60.27856445 -26.33791016 60.27856445 -27.35791016 60.27856445 C-31.26388855 48.35205762 -33.52947853 37.69886074 -33.73291016 25.15356445 C-33.75901367 24.22294189 -33.78511719 23.29231934 -33.81201172 22.33349609 C-33.83147996 14.50100643 -32.00369792 8.48136017 -26.98291016 2.40356445 C-18.42314239 -4.52577136 -9.74941536 -4.6611847 0 0 Z " fill="#1262A5" transform="translate(61.35791015625,108.721435546875)"/>
<path d="M0 0 C5.11592196 4.12115935 8.55601887 8.52792086 9.609375 15.03125 C10.03766607 20.36841567 9.29283627 23.41456899 6 27.6875 C4.78554039 29.09398955 3.53494472 30.4700984 2.25 31.8125 C1.569375 32.55242187 0.88875 33.29234375 0.1875 34.0546875 C-1.75 35.8125 -1.75 35.8125 -4.5 36.0625 C-5.2425 35.98 -5.985 35.8975 -6.75 35.8125 C-8.17315427 32.96619146 -7.98233615 30.36007223 -8.125 27.1875 C-8.62979945 19.82646918 -9.16082933 14.52209722 -14.4375 9 C-18.17081456 6.53460359 -21.51095973 5.20115112 -25.75 3.8125 C-19.7287729 -3.28537035 -8.01718709 -3.46196715 0 0 Z " fill="#1362A3" transform="translate(103.75,164.1875)"/>
<path d="M0 0 C0.66 0 1.32 0 2 0 C2.53392445 18.95021086 1.19872066 37.91666163 -8 55 C-8.66 55 -9.32 55 -10 55 C-10.31453125 53.85660156 -10.6290625 52.71320313 -10.953125 51.53515625 C-11.38452505 50.04401259 -11.81686563 48.55314081 -12.25 47.0625 C-12.45496094 46.30775391 -12.65992187 45.55300781 -12.87109375 44.77539062 C-13.55533736 42.32558901 -13.55533736 42.32558901 -15 39 C-16.95181774 38.28483029 -16.95181774 38.28483029 -19 38 C-19.66 37.67 -20.32 37.34 -21 37 C-21 36.34 -21 35.68 -21 35 C-21.99 35 -22.98 35 -24 35 C-24.8125 33.3125 -24.8125 33.3125 -25 31 C-22.07244131 27.46970863 -18.9245079 25.28929628 -15 23 C-14.67 22.34 -14.34 21.68 -14 21 C-12.34151823 19.98648336 -10.67334039 18.98879205 -9 18 C-4.64851853 14.89179895 -1.54272954 12.12991601 -0.59765625 6.6796875 C-0.3429089 4.45326543 -0.14128809 2.23624939 0 0 Z " fill="#278BDD" transform="translate(126,123)"/>
<path d="M0 0 C4.86285244 0.90052823 6.27459655 3.75690165 9.0546875 7.65625 C9.49039062 8.3059375 9.92609375 8.955625 10.375 9.625 C10.705 6.655 11.035 3.685 11.375 0.625 C13.70794775 0.58258277 16.04202567 0.58407063 18.375 0.625 C19.375 1.625 19.375 1.625 19.48852539 4.12524414 C19.48328857 5.20926514 19.47805176 6.29328613 19.47265625 7.41015625 C19.46943359 8.57998047 19.46621094 9.74980469 19.46289062 10.95507812 C19.45451172 12.18677734 19.44613281 13.41847656 19.4375 14.6875 C19.43298828 15.92306641 19.42847656 17.15863281 19.42382812 18.43164062 C19.41199608 21.49614117 19.39551173 24.56054721 19.375 27.625 C16.12109375 27.9375 16.12109375 27.9375 12.375 27.625 C10.16015625 25.4375 10.16015625 25.4375 8.4375 22.625 C7.85097656 21.696875 7.26445312 20.76875 6.66015625 19.8125 C6.23605469 19.090625 5.81195313 18.36875 5.375 17.625 C5.31441406 18.26308594 5.25382812 18.90117187 5.19140625 19.55859375 C5.10761719 20.38488281 5.02382813 21.21117187 4.9375 22.0625 C4.85628906 22.88621094 4.77507812 23.70992187 4.69140625 24.55859375 C4.375 26.625 4.375 26.625 3.375 27.625 C0.375 27.75 0.375 27.75 -2.625 27.625 C-4.37045605 25.87954395 -3.7552316 23.46375783 -3.7578125 21.09375 C-3.75910156 19.97355469 -3.76039063 18.85335937 -3.76171875 17.69921875 C-3.75785156 16.51972656 -3.75398438 15.34023437 -3.75 14.125 C-3.75386719 12.94550781 -3.75773437 11.76601562 -3.76171875 10.55078125 C-3.76042969 9.43058594 -3.75914062 8.31039062 -3.7578125 7.15625 C-3.75668457 6.12048828 -3.75555664 5.08472656 -3.75439453 4.01757812 C-3.57234918 0.6514565 -3.29637576 0.78485137 0 0 Z " fill="#2F6FC5" transform="translate(287.625,131.375)"/>
<path d="M0 0 C2.35125 -0.061875 4.7025 -0.12375 7.125 -0.1875 C7.85348145 -0.21481201 8.58196289 -0.24212402 9.33251953 -0.27026367 C15.19764363 -0.34423391 19.07595824 1.17996049 23.3125 5.1875 C25.95060578 9.58434297 26.53673636 13.69203366 25.375 18.6875 C23.39427548 22.01871852 21.04999431 25.22290913 17.3203125 26.63671875 C13.96536516 27.16198828 10.63475426 27.10376858 7.25 27.0625 C4.8575 27.041875 2.465 27.02125 0 27 C0 18.09 0 9.18 0 0 Z M8 8 C8 11.63 8 15.26 8 19 C12.6800086 19.39909856 12.6800086 19.39909856 16.9375 17.8125 C18.38718434 15.33950907 18.42317323 13.82115488 18 11 C17.04451019 9.04374022 17.04451019 9.04374022 15 8 C11.37464024 7.7496423 11.37464024 7.7496423 8 8 Z " fill="#326EC2" transform="translate(232,132)"/>
<path d="M0 0 C0.33 0.66 0.66 1.32 1 2 C2.7015625 1.9690625 2.7015625 1.9690625 4.4375 1.9375 C8 2 8 2 9 3 C9.06058971 6.28320504 9.02067401 9.55146329 8.9609375 12.83398438 C8.91461571 17.01452609 9.16916546 20.87828176 10 25 C10.99 24.34 11.98 23.68 13 23 C13.99 23 14.98 23 16 23 C16.66 21.68 17.32 20.36 18 19 C18.66 19.33 19.32 19.66 20 20 C19.41992188 20.72703125 19.41992188 20.72703125 18.828125 21.46875 C11.22120587 31.25983403 8.93406855 39.92672359 7 52 C6.01 52 5.02 52 4 52 C0.05732594 39.96144669 -2.16320351 29.35048831 -2.25 16.6875 C-2.2593457 15.73174072 -2.26869141 14.77598145 -2.27832031 13.79125977 C-2.25551093 8.79732073 -1.97449149 4.67766437 0 0 Z " fill="#14629F" transform="translate(30,117)"/>
<path d="M0 0 C1.134375 0.020625 2.26875 0.04125 3.4375 0.0625 C6.30099937 5.34896037 8.56248942 10.76043199 10.6875 16.375 C10.95771973 17.08076172 11.22793945 17.78652344 11.50634766 18.51367188 C12.61874101 21.49817674 13.4375 23.85101124 13.4375 27.0625 C10.7975 27.0625 8.1575 27.0625 5.4375 27.0625 C5.1075 25.7425 4.7775 24.4225 4.4375 23.0625 C1.4675 23.0625 -1.5025 23.0625 -4.5625 23.0625 C-4.8925 24.3825 -5.2225 25.7025 -5.5625 27.0625 C-8.2025 27.0625 -10.8425 27.0625 -13.5625 27.0625 C-12.93969047 23.54425527 -12.02398765 20.35159464 -10.75 17.015625 C-10.39679688 16.08878906 -10.04359375 15.16195312 -9.6796875 14.20703125 C-9.31101562 13.25183594 -8.94234375 12.29664063 -8.5625 11.3125 C-8.19382812 10.34183594 -7.82515625 9.37117187 -7.4453125 8.37109375 C-4.26604997 0.07484298 -4.26604997 0.07484298 0 0 Z M-0.5625 13.0625 C0.4375 15.0625 0.4375 15.0625 0.4375 15.0625 Z " fill="#3172C7" transform="translate(342.5625,131.9375)"/>
<path d="M0 0 C5.61 0 11.22 0 17 0 C17 2.31 17 4.62 17 7 C14.69 7.66 12.38 8.32 10 9 C12.31 9.66 14.62 10.32 17 11 C17.042721 12.66611905 17.04063832 14.33382885 17 16 C16 17 16 17 14.15234375 17.09765625 C12.1015625 17.06510417 10.05078125 17.03255208 8 17 C8 17.66 8 18.32 8 19 C8.95712891 19.09087891 8.95712891 19.09087891 9.93359375 19.18359375 C10.75988281 19.26738281 11.58617187 19.35117188 12.4375 19.4375 C13.67306641 19.55931641 13.67306641 19.55931641 14.93359375 19.68359375 C17 20 17 20 18 21 C18.125 23.5 18.125 23.5 18 26 C17 27 17 27 13.18359375 27.09765625 C11.60153318 27.09098089 10.01948841 27.07901875 8.4375 27.0625 C7.63119141 27.05798828 6.82488281 27.05347656 5.99414062 27.04882812 C3.99606244 27.03700518 1.99802217 27.01906914 0 27 C-0.99384397 23.74741974 -1.04826731 20.96534629 -0.87890625 17.578125 C-0.83056641 16.55332031 -0.78222656 15.52851563 -0.73242188 14.47265625 C-0.67634766 13.40917969 -0.62027344 12.34570312 -0.5625 11.25 C-0.51029297 10.17105469 -0.45808594 9.09210938 -0.40429688 7.98046875 C-0.27480749 5.32005045 -0.13809828 2.65998532 0 0 Z " fill="#3070C5" transform="translate(262,132)"/>
<path d="M0 0 C3.0625 2 3.0625 2 5 4 C4.75 5.875 4.75 5.875 4 8 C1.9375 9.25 1.9375 9.25 0 10 C0.804375 10.61875 1.60875 11.2375 2.4375 11.875 C5.41075556 14.34062657 5.87244518 15.04333887 6.375 18.8125 C6 22 6 22 3.875 24.8125 C0.62375313 27.28627479 -0.93056444 28 -5 28 C-9.01524978 26.63889838 -12.29150847 25.34578365 -15 22 C-14 19 -14 19 -11 17 C-9.0625 17.3125 -9.0625 17.3125 -7 18 C-6.2575 18.185625 -5.515 18.37125 -4.75 18.5625 C-4.1725 18.706875 -3.595 18.85125 -3 19 C-5.92517077 16.94257043 -5.92517077 16.94257043 -9.0625 15.5625 C-12 14 -12 14 -14 11 C-14.22515962 7.27736092 -13.7512994 4.00173253 -11.5 1 C-7.66144821 -0.53542072 -4.06959243 -0.68792043 0 0 Z M-6 8 C-5.34 8.66 -4.68 9.32 -4 10 C-3.01 9.67 -2.02 9.34 -1 9 C-2.65 8.67 -4.3 8.34 -6 8 Z " fill="#376FBD" transform="translate(163,132)"/>
<path d="M0 0 C2.86498413 0.5324819 4.71805052 1.47952014 6.93359375 3.359375 C7.74609375 5.546875 7.74609375 5.546875 7.93359375 7.359375 C5.95359375 8.349375 3.97359375 9.339375 1.93359375 10.359375 C3.10921875 10.978125 3.10921875 10.978125 4.30859375 11.609375 C7.1017336 13.47146823 8.04639614 14.1654636 8.93359375 17.359375 C8.86434172 21.30674099 8.82344598 23.49733066 5.93359375 26.296875 C0.75475597 28.13104671 -3.9742364 28.23111244 -9.06640625 26.109375 C-11.25407684 24.19516323 -11.77129058 23.21215983 -12.06640625 20.359375 C-10.37890625 18.734375 -10.37890625 18.734375 -8.06640625 17.359375 C-5.50390625 18.171875 -5.50390625 18.171875 -3.06640625 19.359375 C-2.07640625 19.359375 -1.08640625 19.359375 -0.06640625 19.359375 C-0.69289062 19.02164063 -1.319375 18.68390625 -1.96484375 18.3359375 C-2.78210938 17.88992187 -3.599375 17.44390625 -4.44140625 16.984375 C-5.25351563 16.54351562 -6.065625 16.10265625 -6.90234375 15.6484375 C-9.06640625 14.359375 -9.06640625 14.359375 -11.06640625 12.359375 C-11.6346368 8.057058 -11.53403478 6.0462044 -9.06640625 2.421875 C-5.68869584 0.0996991 -3.98867988 -0.27144135 0 0 Z " fill="#306FC8" transform="translate(207.06640625,131.640625)"/>
<path d="M0 0 C3 2 3 2 5 4 C4.43628586 7.26954202 3.50037734 8.82575883 1 11 C1.804375 11.53625 2.60875 12.0725 3.4375 12.625 C6 15 6 15 7.0625 17.9375 C6.98173455 21.89500721 5.7540538 23.2459462 3 26 C-0.70290083 27.85145042 -4.95841254 27.46316465 -9 27 C-12.125 25.25 -12.125 25.25 -14 23 C-14 21.68 -14 20.36 -14 19 C-8.70769231 16.78461538 -8.70769231 16.78461538 -5.125 17.875 C-4.42375 18.24625 -3.7225 18.6175 -3 19 C-4.98628107 17.67581262 -7.00812037 16.40335733 -9.0625 15.1875 C-12.19192245 12.85707903 -13.25928461 11.79616637 -14 8 C-13.30102263 5.06429504 -12.38261919 3.42676756 -10.375 1.1875 C-6.9473649 -0.52631755 -3.70980815 -0.6978847 0 0 Z M-6 8 C-4.515 8.99 -4.515 8.99 -3 10 C-2.34 9.67 -1.68 9.34 -1 9 C-2.65 8.67 -4.3 8.34 -6 8 Z " fill="#2F70C6" transform="translate(186,132)"/>
<path d="M0 0 C1.27423828 -0.00193359 1.27423828 -0.00193359 2.57421875 -0.00390625 C3.91419922 0.00189453 3.91419922 0.00189453 5.28125 0.0078125 C6.17457031 0.00394531 7.06789063 0.00007812 7.98828125 -0.00390625 C8.83777344 -0.00261719 9.68726563 -0.00132812 10.5625 0 C11.34689453 0.00112793 12.13128906 0.00225586 12.93945312 0.00341797 C14.78125 0.1328125 14.78125 0.1328125 15.78125 1.1328125 C15.90625 4.1328125 15.90625 4.1328125 15.78125 7.1328125 C15.45125 7.4628125 15.12125 7.7928125 14.78125 8.1328125 C12.80125 8.1328125 10.82125 8.1328125 8.78125 8.1328125 C8.78125 14.4028125 8.78125 20.6728125 8.78125 27.1328125 C6.47125 27.1328125 4.16125 27.1328125 1.78125 27.1328125 C0.78125 26.1328125 0.78125 26.1328125 0.66772461 24.36694336 C0.67557983 23.24364624 0.67557983 23.24364624 0.68359375 22.09765625 C0.68681641 21.28876953 0.69003906 20.47988281 0.69335938 19.64648438 C0.70173828 18.79634766 0.71011719 17.94621094 0.71875 17.0703125 C0.72326172 16.21630859 0.72777344 15.36230469 0.73242188 14.48242188 C0.74424627 12.36585587 0.76218231 10.24932565 0.78125 8.1328125 C-0.023125 8.1534375 -0.8275 8.1740625 -1.65625 8.1953125 C-4.21875 8.1328125 -4.21875 8.1328125 -5.21875 7.1328125 C-5.34375 4.1328125 -5.34375 4.1328125 -5.21875 1.1328125 C-3.66268249 -0.42325501 -2.15917629 0.00310481 0 0 Z " fill="#2E6FC8" transform="translate(315.21875,131.8671875)"/>
<path d="M0 0 C2.31 0 4.62 0 7 0 C8 1 8 1 8.11352539 2.76586914 C8.10828857 3.51473389 8.10305176 4.26359863 8.09765625 5.03515625 C8.09443359 5.84404297 8.09121094 6.65292969 8.08789062 7.48632812 C8.07951172 8.33646484 8.07113281 9.18660156 8.0625 10.0625 C8.05798828 10.91650391 8.05347656 11.77050781 8.04882812 12.65039062 C8.03700373 14.76695663 8.01906769 16.88348685 8 19 C10.97 19 13.94 19 17 19 C17.38063221 21.3260857 17.71269945 23.66055264 18 26 C17 27 17 27 13.18359375 27.09765625 C11.60152953 27.09191138 10.01948969 27.07889593 8.4375 27.0625 C4.2609375 27.0315625 4.2609375 27.0315625 0 27 C0 18.09 0 9.18 0 0 Z " fill="#356EBC" transform="translate(359,132)"/>
<path d="M0 0 C3.63 0 7.26 0 11 0 C11 0.66 11 1.32 11 2 C10.34 2 9.68 2 9 2 C9 3.32 9 4.64 9 6 C7.64453125 7.421875 7.64453125 7.421875 5.8125 8.75 C-0.62981354 14.07077718 -3.01457092 18.53210093 -3.9050293 26.84082031 C-4.0502539 28.47262259 -4.17582985 30.10630747 -4.28051758 31.74121094 C-4.70297808 37.66191667 -4.70297808 37.66191667 -6.53466797 39.74682617 C-7.01822754 40.16037354 -7.50178711 40.5739209 -8 41 C-14.26946243 38.76090628 -17.0438047 34.71017529 -20 29 C-21.86652006 22.81715229 -20.6631528 16.16630922 -19 10 C-18.34 9.67 -17.68 9.34 -17 9 C-17.875 16.625 -17.875 16.625 -19 20 C-18.34 20.33 -17.68 20.66 -17 21 C-17.33 21.66 -17.66 22.32 -18 23 C-17.68236347 24.99896911 -17.68236347 24.99896911 -17.0625 27.125 C-16.711875 28.40375 -16.36125 29.6825 -16 31 C-11.545 31.99 -11.545 31.99 -7 33 C-7 31.02 -7 29.04 -7 27 C-7.66 27 -8.32 27 -9 27 C-9 26.34 -9 25.68 -9 25 C-8.01 25 -7.02 25 -6 25 C-6.34444881 22.52733235 -6.34444881 22.52733235 -7 20 C-7.66 19.67 -8.32 19.34 -9 19 C-8.01 18.01 -7.02 17.02 -6 16 C-5.34 16.33 -4.68 16.66 -4 17 C-4 16.34 -4 15.68 -4 15 C-3.34 15 -2.68 15 -2 15 C-1.67 12.69 -1.34 10.38 -1 8 C-0.01 8 0.98 8 2 8 C2 7.01 2 6.02 2 5 C1.01 4.67 0.02 4.34 -1 4 C-0.67 2.68 -0.34 1.36 0 0 Z " fill="#227CCA" transform="translate(65,160)"/>
<path d="M0 0 C0.99 0.66 1.98 1.32 3 2 C3 2.66 3 3.32 3 4 C2.34773438 4.13535156 1.69546875 4.27070312 1.0234375 4.41015625 C-5.64334688 6.05226981 -9.23158975 8.22918726 -13 14 C-14.25248502 16.50497004 -14.11374406 18.20853274 -14.09765625 21.0078125 C-14.09443359 21.99394531 -14.09121094 22.98007813 -14.08789062 23.99609375 C-14.07951172 25.02863281 -14.07113281 26.06117188 -14.0625 27.125 C-14.05798828 28.16527344 -14.05347656 29.20554688 -14.04882812 30.27734375 C-14.03701952 32.85161962 -14.02055075 35.42578146 -14 38 C-17.3341066 34.6658934 -17.04823249 30.43370801 -17.09765625 25.9140625 C-17.0910979 24.48434202 -17.07930405 23.05463677 -17.0625 21.625 C-17.05798828 20.88894531 -17.05347656 20.15289062 -17.04882812 19.39453125 C-17.03715142 17.59631842 -17.01922011 15.79814803 -17 14 C-19.31 13.67 -21.62 13.34 -24 13 C-23.58306691 8.1357806 -21.67251308 6.10123327 -18 3 C-12.56498952 -0.8442757 -6.4298297 -0.71442552 0 0 Z " fill="#4EA1E2" transform="translate(55,106)"/>
<path d="M0 0 C3.87059396 3.73057247 5.4088233 6.35024689 5.66796875 11.65625 C5.26830959 20.57864075 5.26830959 20.57864075 2.44921875 23.8515625 C1.80984375 24.38136719 1.17046875 24.91117188 0.51171875 25.45703125 C0.51171875 21.45703125 0.51171875 21.45703125 1.51171875 19.45703125 C1.23059811 17.44902669 0.90103908 15.44689074 0.51171875 13.45703125 C-0.14828125 13.45703125 -0.80828125 13.45703125 -1.48828125 13.45703125 C-1.28203125 12.40515625 -1.07578125 11.35328125 -0.86328125 10.26953125 C-0.48865021 6.46078238 -0.77198058 4.78867373 -2.48828125 1.45703125 C-3.47828125 1.78703125 -4.46828125 2.11703125 -5.48828125 2.45703125 C-5.81828125 1.79703125 -6.14828125 1.13703125 -6.48828125 0.45703125 C-7.47828125 0.45703125 -8.46828125 0.45703125 -9.48828125 0.45703125 C-9.81828125 -0.86296875 -10.14828125 -2.18296875 -10.48828125 -3.54296875 C-11.47828125 -3.54296875 -12.46828125 -3.54296875 -13.48828125 -3.54296875 C-13.24078125 -2.96546875 -12.99328125 -2.38796875 -12.73828125 -1.79296875 C-12.61453125 -0.67921875 -12.61453125 -0.67921875 -12.48828125 0.45703125 C-14.42578125 2.70703125 -14.42578125 2.70703125 -16.48828125 4.45703125 C-17.02453125 3.98265625 -17.56078125 3.50828125 -18.11328125 3.01953125 C-20.91670961 1.17517049 -23.18448383 0.83246278 -26.48828125 0.45703125 C-25.48828125 -2.54296875 -25.48828125 -2.54296875 -23.30078125 -3.66796875 C-14.78906619 -6.31605788 -7.10525339 -5.74713968 0 0 Z " fill="#81BBEA" transform="translate(121.48828125,110.54296875)"/>
<path d="M0 0 C1 2 1 2 0.25 4.4375 C-1 7 -1 7 -2.5625 8.5 C-5.17302653 11.22402768 -4.98845862 14.43447226 -5.0625 18.0625 C-5.041875 19.031875 -5.02125 20.00125 -5 21 C-5 25 -5 25 -6.0625 27.625 C-6.371875 28.40875 -6.68125 29.1925 -7 30 C-6.67 30.66 -6.34 31.32 -6 32 C-6.41345847 34.57327298 -6.88612155 37.08162024 -7.4375 39.625 C-7.65889648 40.68460938 -7.65889648 40.68460938 -7.88476562 41.765625 C-8.25049493 43.51168749 -8.62447121 45.25601884 -9 47 C-13.78258964 39.82611554 -14.03430689 30.72780035 -12.53515625 22.42578125 C-10.29600857 13.98591691 -5.69401625 6.57001875 0 0 Z " fill="#6CAFE4" transform="translate(53,138)"/>
<path d="M0 0 C3.12120335 1.55201121 5.46540767 2.96095123 6.875 6.25 C7.60818436 10.46581006 7.10246127 11.91205754 4.6875 15.5 C2.04420762 18.08455255 0.3773123 19.24933934 -3.125 20.25 C0.52359002 14.58839479 0.52359002 14.58839479 2.5625 12.625 C4.18193062 10.92845363 4.4818087 9.53050956 4.875 7.25 C3.885 6.59 2.895 5.93 1.875 5.25 C1.875 4.59 1.875 3.93 1.875 3.25 C1.25625 4.03375 0.6375 4.8175 0 5.625 C-3.55857039 9.23484662 -8.21338469 9.88488877 -13.125 10.25 C-13.785 9.92 -14.445 9.59 -15.125 9.25 C-18.2166909 11.77956528 -19.03431332 14.47454612 -20.125 18.25 C-21.445 18.25 -22.765 18.25 -24.125 18.25 C-24.785 17.26 -25.445 16.27 -26.125 15.25 C-25.465 15.25 -24.805 15.25 -24.125 15.25 C-23.8775 14.6725 -23.63 14.095 -23.375 13.5 C-19.48535377 6.49863679 -8.34438371 -2.58963632 0 0 Z " fill="#1D7ECE" transform="translate(99.125,109.75)"/>
<path d="M0 0 C5.03985731 0.44469329 7.37634988 2.71343362 11 6 C11.4125 5.484375 11.825 4.96875 12.25 4.4375 C14 3 14 3 16.0625 3 C18 4 18 4 19.25 5.9375 C20.50226336 11.0509087 21.28162694 16.31287139 18.94921875 21.203125 C17.625 23.125 17.625 23.125 15 26 C14.34 26 13.68 26 13 26 C12.85304688 25.01 12.70609375 24.02 12.5546875 23 C11.08708916 14.04708351 9.24315903 7.07489721 1.80859375 1.296875 C1.21175781 0.86890625 0.61492187 0.4409375 0 0 Z " fill="#449DE4" transform="translate(93,168)"/>
<path d="M0 0 C2.26264551 1.74546939 4.24113683 3.59696178 6.1875 5.6875 C5.8575 6.3475 5.5275 7.0075 5.1875 7.6875 C4.1975 7.6875 3.2075 7.6875 2.1875 7.6875 C1.5275 9.0075 0.8675 10.3275 0.1875 11.6875 C-0.9571875 10.511875 -0.9571875 10.511875 -2.125 9.3125 C-6.16291046 5.36849443 -8.46529657 4.41957764 -14 4.0625 C-15.08667969 3.98773438 -16.17335938 3.91296875 -17.29296875 3.8359375 C-18.12441406 3.78695312 -18.95585938 3.73796875 -19.8125 3.6875 C-19.8125 4.0175 -19.8125 4.3475 -19.8125 4.6875 C-21.4625 4.6875 -23.1125 4.6875 -24.8125 4.6875 C-24.8125 3.6975 -24.8125 2.7075 -24.8125 1.6875 C-16.09185493 -1.45301051 -8.74296951 -4.08005244 0 0 Z " fill="#1A66A7" transform="translate(103.8125,164.3125)"/>
<path d="M0 0 C0.66 0 1.32 0 2 0 C2 0.66 2 1.32 2 2 C2.99 2 3.98 2 5 2 C5.33 1.34 5.66 0.68 6 0 C6.67031719 1.9570868 7.33614683 3.91571113 8 5.875 C8.556875 7.51082031 8.556875 7.51082031 9.125 9.1796875 C10 12 10 12 10 14 C10.99 14 11.98 14 13 14 C13 16.97 13 19.94 13 23 C11.68 22.67 10.36 22.34 9 22 C8.67 19.36 8.34 16.72 8 14 C6.68 14 5.36 14 4 14 C3.01 13.34 2.02 12.68 1 12 C-0.66324401 10.99431758 -2.32936253 9.99335201 -4 9 C-3.34 8.34 -2.68 7.68 -2 7 C-1.28072705 4.68234271 -0.6090107 2.34904126 0 0 Z " fill="#2D6ECA" transform="translate(340,134)"/>
<path d="M0 0 C0.66 0 1.32 0 2 0 C2.83467188 29.6244313 2.83467188 29.6244313 -3 40 C-2.97679688 39.20335937 -2.95359375 38.40671875 -2.9296875 37.5859375 C-2.83399805 31.9675998 -2.76666921 27.25489598 -5 22 C-5.88224597 19.50030309 -6.21323067 18.55084591 -5.25 16.0625 C-4 14 -4 14 -2.4375 11.8125 C-0.47047313 7.96396917 -0.26970635 4.26880048 0 0 Z " fill="#2881CD" transform="translate(126,123)"/>
<path d="M0 0 C1.134375 0.020625 2.26875 0.04125 3.4375 0.0625 C9.4375 11.80036408 9.4375 11.80036408 9.4375 16.0625 C8.7775 16.0625 8.1175 16.0625 7.4375 16.0625 C7.19515625 15.28003906 6.9528125 14.49757812 6.703125 13.69140625 C6.20039063 12.17353516 6.20039063 12.17353516 5.6875 10.625 C5.36265625 9.61566406 5.0378125 8.60632813 4.703125 7.56640625 C3.69915285 4.89219396 3.69915285 4.89219396 1.296875 4.21484375 C0.68328125 4.16457031 0.0696875 4.11429688 -0.5625 4.0625 C-0.5625 3.4025 -0.5625 2.7425 -0.5625 2.0625 C-1.5525 2.5575 -1.5525 2.5575 -2.5625 3.0625 C-4.05629116 7.47295685 -4.05629116 7.47295685 -4.5625 12.0625 C-4.5625 13.0525 -4.5625 14.0425 -4.5625 15.0625 C-5.5525 15.3925 -6.5425 15.7225 -7.5625 16.0625 C-7.5625 16.7225 -7.5625 17.3825 -7.5625 18.0625 C-8.2225 18.0625 -8.8825 18.0625 -9.5625 18.0625 C-10.2225 20.3725 -10.8825 22.6825 -11.5625 25.0625 C-9.5825 25.0625 -7.6025 25.0625 -5.5625 25.0625 C-5.5625 24.0725 -5.5625 23.0825 -5.5625 22.0625 C-2.9225 22.0625 -0.2825 22.0625 2.4375 22.0625 C2.4375 22.3925 2.4375 22.7225 2.4375 23.0625 C0.1275 23.0625 -2.1825 23.0625 -4.5625 23.0625 C-4.8925 24.3825 -5.2225 25.7025 -5.5625 27.0625 C-8.2025 27.0625 -10.8425 27.0625 -13.5625 27.0625 C-12.93969047 23.54425527 -12.02398765 20.35159464 -10.75 17.015625 C-10.39679688 16.08878906 -10.04359375 15.16195312 -9.6796875 14.20703125 C-9.31101562 13.25183594 -8.94234375 12.29664063 -8.5625 11.3125 C-8.19382812 10.34183594 -7.82515625 9.37117187 -7.4453125 8.37109375 C-4.26604997 0.07484298 -4.26604997 0.07484298 0 0 Z " fill="#3572C4" transform="translate(342.5625,131.9375)"/>
<path d="M0 0 C0.66 0.33 1.32 0.66 2 1 C1.01 2.485 1.01 2.485 0 4 C-0.66 4 -1.32 4 -2 4 C-2 5.65 -2 7.3 -2 9 C-1.34 9 -0.68 9 0 9 C0.99 10.485 0.99 10.485 2 12 C2.33 10.68 2.66 9.36 3 8 C8.00284542 8.47646147 11.03079315 9.93288562 15 13 C17 16 17 16 16.625 19.1875 C16.315625 20.5796875 16.315625 20.5796875 16 22 C14.58622659 19.36095629 13.62759865 16.92879371 13 14 C12.34 14 11.68 14 11 14 C11 13.34 11 12.68 11 12 C9.02 12.66 7.04 13.32 5 14 C5.66 14.66 6.32 15.32 7 16 C2.60618791 15.49785005 0.16580205 14.07786311 -3 11 C-4.31039237 8.29185576 -4.08316625 7.26869096 -3.1875 4.375 C-2 2 -2 2 0 0 Z " fill="#356FC0" transform="translate(176,133)"/>
<path d="M0 0 C8.92918332 -0.45402627 8.92918332 -0.45402627 13 3 C13.8125 5.1875 13.8125 5.1875 14 7 C12.02 7.99 10.04 8.98 8 10 C9.32 10.66 10.64 11.32 12 12 C12 12.33 12 12.66 12 13 C10.576875 12.9690625 10.576875 12.9690625 9.125 12.9375 C6.09333717 12.77448174 6.09333717 12.77448174 4 14 C3.34 13.01 2.68 12.02 2 11 C1.34 11.66 0.68 12.32 0 13 C0 13.99 0 14.98 0 16 C-1.32 14.68 -2.64 13.36 -4 12 C-3.34 12 -2.68 12 -2 12 C-2 11.01 -2 10.02 -2 9 C-1.34 9 -0.68 9 0 9 C-0.33 8.01 -0.66 7.02 -1 6 C-0.01 6 0.98 6 2 6 C2 6.33 2 6.66 2 7 C4.97 7 7.94 7 11 7 C9.52342062 2.92097496 9.52342062 2.92097496 6.8359375 2.171875 C5.61777344 1.96304688 5.61777344 1.96304688 4.375 1.75 C3.55773437 1.60046875 2.74046875 1.4509375 1.8984375 1.296875 C1.27195313 1.19890625 0.64546875 1.1009375 0 1 C0 0.67 0 0.34 0 0 Z " fill="#386EBC" transform="translate(201,132)"/>
<path d="M0 0 C2.33294775 -0.04241723 4.66702567 -0.04092937 7 0 C8 1 8 1 8.11352539 3.50024414 C8.10828857 4.58426514 8.10305176 5.66828613 8.09765625 6.78515625 C8.09443359 7.95498047 8.09121094 9.12480469 8.08789062 10.33007812 C8.07951172 11.56177734 8.07113281 12.79347656 8.0625 14.0625 C8.05798828 15.29806641 8.05347656 16.53363281 8.04882812 17.80664062 C8.03699608 20.87114117 8.02051173 23.93554721 8 27 C4.65234375 27.1875 4.65234375 27.1875 1 27 C-1.4375 24 -1.4375 24 -3 21 C-2.01 21 -1.02 21 0 21 C0.33 21.99 0.66 22.98 1 24 C2.65 24.33 4.3 24.66 6 25 C5.96447021 24.37955811 5.92894043 23.75911621 5.89233398 23.11987305 C5.73474853 20.30937992 5.58602567 17.49848584 5.4375 14.6875 C5.38142578 13.71103516 5.32535156 12.73457031 5.26757812 11.72851562 C5.21923828 10.79072266 5.17089844 9.85292969 5.12109375 8.88671875 C5.0739624 8.02264404 5.02683105 7.15856934 4.97827148 6.26831055 C5 4 5 4 6 1 C4.35 1 2.7 1 1 1 C1 3.97 1 6.94 1 10 C0.67 10 0.34 10 0 10 C0 6.7 0 3.4 0 0 Z " fill="#4070AF" transform="translate(299,132)"/>
<path d="M0 0 C0.99 0.33 1.98 0.66 3 1 C4.66821323 0.67449498 6.33499557 0.34153937 8 0 C8.66 0.33 9.32 0.66 10 1 C9.83628906 1.91910156 9.67257813 2.83820313 9.50390625 3.78515625 C8.76062905 8.98809668 8.89314293 14.19312905 8.9375 19.4375 C8.94201172 20.45521484 8.94652344 21.47292969 8.95117188 22.52148438 C8.96287563 25.01438509 8.97927152 27.50716074 9 30 C5.6658934 26.6658934 5.95176751 22.43370801 5.90234375 17.9140625 C5.9089021 16.48434202 5.92069595 15.05463677 5.9375 13.625 C5.94201172 12.88894531 5.94652344 12.15289062 5.95117188 11.39453125 C5.96284858 9.59631842 5.98077989 7.79814803 6 6 C3.69 5.67 1.38 5.34 -1 5 C-0.67 3.35 -0.34 1.7 0 0 Z " fill="#2A82C8" transform="translate(32,114)"/>
<path d="M0 0 C0.33 0.99 0.66 1.98 1 3 C2.32 3 3.64 3 5 3 C5.66 3.66 6.32 4.32 7 5 C9.68839385 5.26991906 12.29141936 5.08737357 15 5 C15 6.32 15 7.64 15 9 C6.585 9.495 6.585 9.495 -2 10 C-1.34 6.7 -0.68 3.4 0 0 Z " fill="#2C6CCB" transform="translate(263,148)"/>
<path d="M0 0 C3 0.25 3 0.25 5 2.25 C5.3125 5.75 5.3125 5.75 5 9.25 C1.77856724 11.39762184 0.7404533 11.811068 -3 11.25 C-4.875 9.5625 -4.875 9.5625 -6 7.25 C-5.67747519 2.7346526 -4.81889451 0.40157454 0 0 Z M-1 2.25 C-1.66 2.91 -2.32 3.57 -3 4.25 C-2.6814823 6.35820797 -2.6814823 6.35820797 -2 8.25 C-0.68 8.25 0.64 8.25 2 8.25 C2.33 7.26 2.66 6.27 3 5.25 C2.02149805 4.22895449 1.02019573 3.2293879 0 2.25 C-0.33 2.25 -0.66 2.25 -1 2.25 Z " fill="#5E96C7" transform="translate(153,166.75)"/>
<path d="M0 0 C0.66 0.33 1.32 0.66 2 1 C0.2144369 4.57112621 -3.61089177 5.82101021 -7.125 7.4375 C-11.33387085 9.72492981 -12.55965368 11.79484166 -14.1875 16.25 C-14.455625 17.1575 -14.72375 18.065 -15 19 C-16.32 19 -17.64 19 -19 19 C-19.66 18.01 -20.32 17.02 -21 16 C-20.34 16 -19.68 16 -19 16 C-18.7525 15.4225 -18.505 14.845 -18.25 14.25 C-15.50897017 9.3161463 -11.0890297 6.56537304 -6.375 3.6875 C-5.49714844 3.1296582 -5.49714844 3.1296582 -4.6015625 2.56054688 C-3.10691202 1.64010271 -1.55636473 0.81174279 0 0 Z " fill="#3988C4" transform="translate(94,109)"/>
<path d="M0 0 C3.34570395 1.04553248 4.77243867 2.28156149 7 4.9375 C6.67 5.5975 6.34 6.2575 6 6.9375 C5.01 6.9375 4.02 6.9375 3 6.9375 C2.34 8.2575 1.68 9.5775 1 10.9375 C-1.66666667 8.27083333 -4.33333333 5.60416667 -7 2.9375 C-4.53995787 0.57207487 -3.47516204 -0.07239921 0 0 Z " fill="#2278BE" transform="translate(103,165.0625)"/>
<path d="M0 0 C2.875 -0.125 2.875 -0.125 6 0 C6.66 0.66 7.32 1.32 8 2 C7.625 4.9375 7.625 4.9375 7 8 C7 8.99 7 9.98 7 11 C6.401875 10.814375 5.80375 10.62875 5.1875 10.4375 C2.83591238 9.77906313 2.83591238 9.77906313 0 11 C0 7.37 0 3.74 0 0 Z M3 2 C3.33 2.99 3.66 3.98 4 5 C4 4.01 4 3.02 4 2 C3.67 2 3.34 2 3 2 Z " fill="#5E9FD0" transform="translate(213,167)"/>
<path d="M0 0 C1 2 1 2 0.25 4.4375 C-1 7 -1 7 -2.5625 8.5 C-5.37772062 11.43762152 -5 15.1153366 -5 19 C-6.32 19.33 -7.64 19.66 -9 20 C-9.33 21.32 -9.66 22.64 -10 24 C-10.66 24 -11.32 24 -12 24 C-10.47013415 14.51483175 -6.28366432 7.25038191 0 0 Z " fill="#65A9DE" transform="translate(53,138)"/>
<path d="M0 0 C1.32 1.65 2.64 3.3 4 5 C2.02 6.65 0.04 8.3 -2 10 C-1.67 8.68 -1.34 7.36 -1 6 C-5.455 6.495 -5.455 6.495 -10 7 C-9.67 5.35 -9.34 3.7 -9 2 C-6.94921875 1.77213542 -4.8984375 1.54427083 -2.84765625 1.31640625 C-0.98859771 1.18113386 -0.98859771 1.18113386 0 0 Z " fill="#3696E5" transform="translate(43,109)"/>
<path d="M0 0 C1.65 0.33 3.3 0.66 5 1 C4.67 1.66 4.34 2.32 4 3 C4.33 3.99 4.66 4.98 5 6 C4.36971413 7.68076231 3.70211894 9.34795544 3 11 C3 11.99 3 12.98 3 14 C1.35 13.67 -0.3 13.34 -2 13 C-2 10.36 -2 7.72 -2 5 C-1.34 5 -0.68 5 0 5 C0 3.35 0 1.7 0 0 Z " fill="#68B3F0" transform="translate(43,157)"/>
<path d="M0 0 C1.65 0 3.3 0 5 0 C4.67 4.95 4.34 9.9 4 15 C3.01 15 2.02 15 1 15 C-1.80396138 10.05183286 -0.77350507 5.38317715 0 0 Z " fill="#185E9F" transform="translate(33,154)"/>
<path d="M0 0 C0.721875 0.37125 1.44375 0.7425 2.1875 1.125 C4.17860401 1.50790462 6.17850513 1.85104615 8.1875 2.125 C8.1875 3.775 8.1875 5.425 8.1875 7.125 C5.1134539 8.47758028 3.86178952 8.02391744 0.5625 7 C-2.8125 5.125 -2.8125 5.125 -4.25 2.4375 C-4.435625 1.674375 -4.62125 0.91125 -4.8125 0.125 C-1.8125 -0.875 -1.8125 -0.875 0 0 Z " fill="#2C6EC8" transform="translate(204.8125,142.875)"/>
<path d="M0 0 C0.99 0.33 1.98 0.66 3 1 C3.33 1.99 3.66 2.98 4 4 C4.45375 3.34 4.9075 2.68 5.375 2 C5.91125 1.34 6.4475 0.68 7 0 C7.66 0 8.32 0 9 0 C8.53199289 4.05606165 8.12046792 7.46588679 6 11 C5.01 11 4.02 11 3 11 C1.68 7.7 0.36 4.4 -1 1 C-0.67 0.67 -0.34 0.34 0 0 Z " fill="#55A7D8" transform="translate(185,167)"/>
<path d="M0 0 C1.98 0 3.96 0 6 0 C6 0.99 6 1.98 6 3 C5.01 2.67 4.02 2.34 3 2 C3 2.66 3 3.32 3 4 C3.99 4 4.98 4 6 4 C6.38133299 5.9914056 6.71325582 7.99279077 7 10 C6 11 6 11 3.5 11.125 C1 11 1 11 0 10 C-0.07205511 8.31391034 -0.08386068 6.62499341 -0.0625 4.9375 C-0.05347656 4.01839844 -0.04445312 3.09929687 -0.03515625 2.15234375 C-0.02355469 1.44207031 -0.01195312 0.73179687 0 0 Z " fill="#659CCC" transform="translate(200,167)"/>
<path d="M0 0 C1.32830615 3.98491845 0.23204404 5.40048548 -1.4375 9.1875 C-1.91058594 10.27417969 -2.38367188 11.36085937 -2.87109375 12.48046875 C-3.24363281 13.31191406 -3.61617188 14.14335937 -4 15 C-4.66 15 -5.32 15 -6 15 C-6.99 11.7 -7.98 8.4 -9 5 C-7.68 5.33 -6.36 5.66 -5 6 C-3.35 4.02 -1.7 2.04 0 0 Z " fill="#3E90D7" transform="translate(122,163)"/>
<path d="M0 0 C0.99 0 1.98 0 3 0 C3.91078492 2.55019778 4.17843392 3.59554978 3.0625 6.125 C2.711875 6.74375 2.36125 7.3625 2 8 C2 8.66 2 9.32 2 10 C-1.96 10 -5.92 10 -10 10 C-10 9.01 -10 8.02 -10 7 C-7.36 6.67 -4.72 6.34 -2 6 C-1.34 4.02 -0.68 2.04 0 0 Z " fill="#2B71CB" transform="translate(163,147)"/>
<path d="M0 0 C5.61 0 11.22 0 17 0 C17 2.31 17 4.62 17 7 C16 8 16 8 12.9375 8.0625 C11.968125 8.041875 10.99875 8.02125 10 8 C10.99 7.67 11.98 7.34 13 7 C13.66 5.02 14.32 3.04 15 1 C10.38 1 5.76 1 1 1 C1 7.93 1 14.86 1 22 C0.67 22 0.34 22 0 22 C0 14.74 0 7.48 0 0 Z " fill="#3A6DB2" transform="translate(262,132)"/>
<path d="M0 0 C0.99 0.33 1.98 0.66 3 1 C2.01 1.33 1.02 1.66 0 2 C0 3.65 0 5.3 0 7 C0.99 7 1.98 7 3 7 C3.66 6.34 4.32 5.68 5 5 C7.64 5.99 10.28 6.98 13 8 C10.6058839 10.3941161 9.96213689 10.29598923 6.6875 10.3125 C2.69315921 10.21601834 0.09707371 9.7099395 -3 7 C-3.8125 4.8125 -3.8125 4.8125 -4 3 C-2.1875 1.4375 -2.1875 1.4375 0 0 Z " fill="#3871BA" transform="translate(199,149)"/>
<path d="M0 0 C1.47968324 0.14049518 2.95874516 0.28754826 4.4375 0.4375 C5.67306641 0.55931641 5.67306641 0.55931641 6.93359375 0.68359375 C9 1 9 1 10 2 C10.125 4.5 10.125 4.5 10 7 C9 8 9 8 5.18359375 8.09765625 C3.60153318 8.09098089 2.01948841 8.07901875 0.4375 8.0625 C-0.36880859 8.05798828 -1.17511719 8.05347656 -2.00585938 8.04882812 C-4.00393756 8.03700518 -6.00197783 8.01906914 -8 8 C-6 6 -6 6 -2.7421875 5.8046875 C-1.46601563 5.82789063 -0.18984375 5.85109375 1.125 5.875 C3.04699219 5.90207031 3.04699219 5.90207031 5.0078125 5.9296875 C6.48894531 5.96449219 6.48894531 5.96449219 8 6 C8 4.68 8 3.36 8 2 C5.36 2 2.72 2 0 2 C0 1.34 0 0.68 0 0 Z " fill="#3F71B1" transform="translate(270,151)"/>
<path d="M0 0 C0.33 0 0.66 0 1 0 C1.48100538 5.31243725 1.78293046 9.61499374 -1.375 14.125 C-2.24125 15.07375 -3.1075 16.0225 -4 17 C-4.66 17 -5.32 17 -6 17 C-6 14.03 -6 11.06 -6 8 C-5.01 8.33 -4.02 8.66 -3 9 C-1.61666667 7.81666667 -1.61666667 7.81666667 -1.5 4.5 C-1 1 -1 1 0 0 Z " fill="#579ED9" transform="translate(112,177)"/>
<path d="M0 0 C3.63 0 7.26 0 11 0 C11 0.66 11 1.32 11 2 C10.34 2 9.68 2 9 2 C9 2.99 9 3.98 9 5 C6.69 5.66 4.38 6.32 2 7 C2 6.34 2 5.68 2 5 C1.01 4.67 0.02 4.34 -1 4 C-0.67 2.68 -0.34 1.36 0 0 Z " fill="#2E8AD6" transform="translate(65,160)"/>
<path d="M0 0 C1.27423828 -0.00193359 1.27423828 -0.00193359 2.57421875 -0.00390625 C3.91419922 0.00189453 3.91419922 0.00189453 5.28125 0.0078125 C6.17457031 0.00394531 7.06789063 0.00007812 7.98828125 -0.00390625 C8.83777344 -0.00261719 9.68726563 -0.00132812 10.5625 0 C11.34689453 0.00112793 12.13128906 0.00225586 12.93945312 0.00341797 C14.78125 0.1328125 14.78125 0.1328125 15.78125 1.1328125 C15.82205783 3.13239614 15.82379356 5.13326504 15.78125 7.1328125 C15.12125 7.1328125 14.46125 7.1328125 13.78125 7.1328125 C13.78125 5.1528125 13.78125 3.1728125 13.78125 1.1328125 C8.50125 1.1328125 3.22125 1.1328125 -2.21875 1.1328125 C-2.21875 2.7828125 -2.21875 4.4328125 -2.21875 6.1328125 C-1.55875 6.7928125 -0.89875 7.4528125 -0.21875 8.1328125 C-1.86875 7.8028125 -3.51875 7.4728125 -5.21875 7.1328125 C-5.26129356 5.13326504 -5.25955783 3.13239614 -5.21875 1.1328125 C-3.66268249 -0.42325501 -2.15917629 0.00310481 0 0 Z " fill="#3E71B1" transform="translate(315.21875,131.8671875)"/>
<path d="M0 0 C0.66 0 1.32 0 2 0 C2.33 5.28 2.66 10.56 3 16 C6.13323425 16 7.68020784 13.95350919 10 12 C10.66 12.66 11.32 13.32 12 14 C7.69230769 18.92307692 7.69230769 18.92307692 4.1875 19.3125 C3.465625 19.209375 2.74375 19.10625 2 19 C0.3501993 15.70039859 0.61741639 12.00872116 0.4375 8.375 C0.39431641 7.57320312 0.35113281 6.77140625 0.30664062 5.9453125 C0.20048543 3.9637489 0.09973145 1.98189729 0 0 Z " fill="#296591" transform="translate(95,181)"/>
<path d="M0 0 C1.65 0 3.3 0 5 0 C5.1875 2.3125 5.1875 2.3125 5 5 C4.484375 5.474375 3.96875 5.94875 3.4375 6.4375 C2.7259375 7.2109375 2.7259375 7.2109375 2 8 C2.23283149 11.14921909 2.23283149 11.14921909 3 14 C2.01 14 1.02 14 0 14 C-0.19532961 12.2300132 -0.38098882 10.45895721 -0.5625 8.6875 C-0.66691406 7.70136719 -0.77132813 6.71523437 -0.87890625 5.69921875 C-1 3 -1 3 0 0 Z " fill="#2E70CC" transform="translate(317,142)"/>
<path d="M0 0 C0 0.99 0 1.98 0 3 C-0.66 3 -1.32 3 -2 3 C-2 3.99 -2 4.98 -2 6 C-1.01 6.33 -0.02 6.66 1 7 C0.34 7.66 -0.32 8.32 -1 9 C-1.53625 8.525625 -2.0725 8.05125 -2.625 7.5625 C-5.42842836 5.71813924 -7.69620258 5.37543153 -11 5 C-10 2 -10 2 -7.75 0.8125 C-5.00208853 0.00061706 -2.84552111 -0.16260121 0 0 Z " fill="#72B2E8" transform="translate(106,106)"/>
<path d="M0 0 C-0.44730469 0.3403125 -0.89460938 0.680625 -1.35546875 1.03125 C-5.57982833 4.4179434 -8.38896069 7.74736757 -11.0546875 12.4609375 C-11.36664063 12.96882812 -11.67859375 13.47671875 -12 14 C-12.33 14 -12.66 14 -13 14 C-13 12.35 -13 10.7 -13 9 C-12.34 9 -11.68 9 -11 9 C-10.95875 7.906875 -10.9175 6.81375 -10.875 5.6875 C-10 2 -10 2 -7.1875 0 C-3.94319665 -1.01782066 -3.0808751 -0.96235578 0 0 Z " fill="#3282C3" transform="translate(74,166)"/>
<path d="M0 0 C0.66 0.33 1.32 0.66 2 1 C1.175 1.7425 0.35 2.485 -0.5 3.25 C-3.44844853 5.87387385 -3.44844853 5.87387385 -3 10 C-2.01 10 -1.02 10 0 10 C-0.33 10.66 -0.66 11.32 -1 12 C-1.99 11.67 -2.98 11.34 -4 11 C-4 10.34 -4 9.68 -4 9 C-6.97 8.505 -6.97 8.505 -10 8 C-9 5 -9 5 -7.1875 3.8671875 C-6.465625 3.53976563 -5.74375 3.21234375 -5 2.875 C-2.29696822 1.7328129 -2.29696822 1.7328129 0 0 Z " fill="#3594E2" transform="translate(105,148)"/>
<path d="M0 0 C1.46067199 0.45082469 2.91848032 0.91093537 4.375 1.375 C5.18710938 1.63023438 5.99921875 1.88546875 6.8359375 2.1484375 C9 3 9 3 11 5 C8.525 6.485 8.525 6.485 6 8 C3.5625 6.8125 3.5625 6.8125 1 5 C0.1875 2.3125 0.1875 2.3125 0 0 Z " fill="#216598" transform="translate(64,112)"/>
<path d="M0 0 C0.33 0 0.66 0 1 0 C1 6.27 1 12.54 1 19 C-1.31 19 -3.62 19 -6 19 C-7 18 -7 18 -7.09765625 15.93359375 C-7.08605469 15.10988281 -7.07445312 14.28617188 -7.0625 13.4375 C-7.05347656 12.61121094 -7.04445313 11.78492188 -7.03515625 10.93359375 C-7.02355469 10.29550781 -7.01195312 9.65742188 -7 9 C-6.67 9 -6.34 9 -6 9 C-5.67 11.31 -5.34 13.62 -5 16 C-3.35 16.33 -1.7 16.66 0 17 C0 11.39 0 5.78 0 0 Z " fill="#406FAD" transform="translate(323,140)"/>
<path d="M0 0 C0.33 1.32 0.66 2.64 1 4 C-2.13498292 5.85776765 -4.37471432 6.20140476 -8 6 C-8 5.01 -8 4.02 -8 3 C-8.66 2.67 -9.32 2.34 -10 2 C-6.49223216 0.39644899 -3.85645121 -0.22036864 0 0 Z " fill="#2E6ECC" transform="translate(160,133)"/>
<path d="M0 0 C0.66 0 1.32 0 2 0 C2 2.64 2 5.28 2 8 C2.99 8.33 3.98 8.66 5 9 C5 9.66 5 10.32 5 11 C3.33388095 11.042721 1.66617115 11.04063832 0 11 C-1 10 -1 10 -1.1328125 7.96875 C-1.13023437 7.1540625 -1.12765625 6.339375 -1.125 5.5 C-1.12757813 4.6853125 -1.13015625 3.870625 -1.1328125 3.03125 C-1 1 -1 1 0 0 Z " fill="#639CCB" transform="translate(165,167)"/>
<path d="M0 0 C1.65 0 3.3 0 5 0 C4.67 2.31 4.34 4.62 4 7 C2.02 7 0.04 7 -2 7 C-1.34 4.69 -0.68 2.38 0 0 Z " fill="#2D70CA" transform="translate(333,150)"/>
<path d="M0 0 C0.99 0.33 1.98 0.66 3 1 C1.33333333 2.66666667 -0.33333333 4.33333333 -2 6 C-2.7115625 6.8353125 -2.7115625 6.8353125 -3.4375 7.6875 C-5.70285245 9.59039606 -8.1895553 10.18809375 -11 11 C-11 10.34 -11 9.68 -11 9 C-7.53846154 6 -7.53846154 6 -5 6 C-4.67 5.01 -4.34 4.02 -4 3 C-2.125 1.25 -2.125 1.25 0 0 Z " fill="#53A4E9" transform="translate(120,135)"/>
<path d="M0 0 C0.66 0 1.32 0 2 0 C1.67 1.32 1.34 2.64 1 4 C-0.11375 4.226875 -1.2275 4.45375 -2.375 4.6875 C-6.16038373 5.60623658 -6.16038373 5.60623658 -7.4375 8.625 C-7.7159375 9.800625 -7.7159375 9.800625 -8 11 C-8.66 10.67 -9.32 10.34 -10 10 C-10 9.01 -10 8.02 -10 7 C-9.34 7 -8.68 7 -8 7 C-8 5.35 -8 3.7 -8 2 C-5.69 2 -3.38 2 -1 2 C-0.67 1.34 -0.34 0.68 0 0 Z " fill="#2E6FCF" transform="translate(186,135)"/>
<path d="M0 0 C8.92918332 -0.45402627 8.92918332 -0.45402627 13 3 C13.8125 5.1875 13.8125 5.1875 14 7 C12.02 7.99 10.04 8.98 8 10 C7.34 9.34 6.68 8.68 6 8 C7.65 7.67 9.3 7.34 11 7 C10.32768352 4.98608854 10.32768352 4.98608854 9 3 C6.82791412 2.08839907 6.82791412 2.08839907 4.375 1.75 C3.55773437 1.60046875 2.74046875 1.4509375 1.8984375 1.296875 C1.27195313 1.19890625 0.64546875 1.1009375 0 1 C0 0.67 0 0.34 0 0 Z " fill="#406DAE" transform="translate(201,132)"/>
<path d="M0 0 C1.125 3.75 1.125 3.75 0 6 C1.98 6 3.96 6 6 6 C6 5.01 6 4.02 6 3 C8.64 3 11.28 3 14 3 C14 3.33 14 3.66 14 4 C11.69 4 9.38 4 7 4 C6.67 5.32 6.34 6.64 6 8 C3.36 8 0.72 8 -2 8 C-1.47731534 5.23723823 -0.89130413 2.6739124 0 0 Z " fill="#4171AB" transform="translate(331,151)"/>
<path d="M0 0 C0.33 0 0.66 0 1 0 C1.45510807 6.67491831 -0.2327574 12.59374557 -2 19 C-2.33 19 -2.66 19 -3 19 C-3 14.71 -3 10.42 -3 6 C-2.34 6 -1.68 6 -1 6 C-0.67 4.02 -0.34 2.04 0 0 Z " fill="#3583C2" transform="translate(126,144)"/>
<path d="M0 0 C0.99 0.33 1.98 0.66 3 1 C2.34 3.31 1.68 5.62 1 8 C-0.32 8 -1.64 8 -3 8 C-3.66 7.01 -4.32 6.02 -5 5 C-4.34 5 -3.68 5 -3 5 C-2.5359375 4.0409375 -2.5359375 4.0409375 -2.0625 3.0625 C-1 1 -1 1 0 0 Z " fill="#2D8CDB" transform="translate(78,120)"/>
<path d="M0 0 C1.32 0.33 2.64 0.66 4 1 C3.67 2.32 3.34 3.64 3 5 C8.94 5.99 8.94 5.99 15 7 C15 7.33 15 7.66 15 8 C6.10974106 8.62145499 6.10974106 8.62145499 1.875 6.25 C0 4 0 4 0 0 Z " fill="#3F72B5" transform="translate(172,151)"/>
<path d="M0 0 C2.5 1.1875 2.5 1.1875 4.5 3.1875 C2.52 4.1775 2.52 4.1775 0.5 5.1875 C1.16 5.8475 1.82 6.5075 2.5 7.1875 C-0.47 6.6925 -0.47 6.6925 -3.5 6.1875 C-3.17 4.8675 -2.84 3.5475 -2.5 2.1875 C-3.16 2.1875 -3.82 2.1875 -4.5 2.1875 C-4.5 1.5275 -4.5 0.8675 -4.5 0.1875 C-2.5 -0.8125 -2.5 -0.8125 0 0 Z " fill="#396FC1" transform="translate(178.5,149.8125)"/>
<path d="M0 0 C0.66 0.33 1.32 0.66 2 1 C1.01 2.485 1.01 2.485 0 4 C-0.66 4 -1.32 4 -2 4 C-2 5.65 -2 7.3 -2 9 C-1.34 9 -0.68 9 0 9 C0.33 9.99 0.66 10.98 1 12 C4.00007271 13.70855022 4.00007271 13.70855022 7 15 C6.01 15.33 5.02 15.66 4 16 C0.66491792 14.23036461 -1.50739616 12.80048123 -3.5 9.5625 C-4.12800232 6.3439881 -3.54358959 4.85564074 -2 2 C-1.34 1.34 -0.68 0.68 0 0 Z " fill="#406DB2" transform="translate(176,133)"/>
<path d="M0 0 C2.31 0 4.62 0 7 0 C13 11.73786408 13 11.73786408 13 16 C12.34 16 11.68 16 11 16 C9.35 11.38 7.7 6.76 6 2 C3.03 1.505 3.03 1.505 0 1 C0 0.67 0 0.34 0 0 Z " fill="#4371B3" transform="translate(339,132)"/>
<path d="M0 0 C0.66 0.33 1.32 0.66 2 1 C2 1.99 2 2.98 2 4 C2.66 4 3.32 4 4 4 C4 5.32 4 6.64 4 8 C3.01 8.33 2.02 8.66 1 9 C0.01 8.34 -0.98 7.68 -2 7 C-1.34 4.69 -0.68 2.38 0 0 Z " fill="#2691E7" transform="translate(106,171)"/>
<path d="M0 0 C0.99 0.33 1.98 0.66 3 1 C4.0257259 5.41062136 4.03684712 7.92630576 2 12 C0.35 11.01 -1.3 10.02 -3 9 C0 8 0 8 2 8 C2 6.68 2 5.36 2 4 C1.34 4 0.68 4 0 4 C0 2.68 0 1.36 0 0 Z " fill="#3993DB" transform="translate(108,171)"/>
<path d="M0 0 C3.63 0.33 7.26 0.66 11 1 C13 6 13 6 12 9 C11.319375 8.236875 10.63875 7.47375 9.9375 6.6875 C6.64101475 3.67156669 4.13693165 2.54120983 0 1 C0 0.67 0 0.34 0 0 Z " fill="#4191D2" transform="translate(100,159)"/>
<path d="M0 0 C1.65 0.33 3.3 0.66 5 1 C3.02 1.99 3.02 1.99 1 3 C1 3.66 1 4.32 1 5 C-4.445 6.485 -4.445 6.485 -10 8 C-7 5 -7 5 -3.875 4 C-2.92625 3.67 -1.9775 3.34 -1 3 C-0.67 2.01 -0.34 1.02 0 0 Z " fill="#50A9EF" transform="translate(89,153)"/>
<path d="M0 0 C1.9375 0.75 1.9375 0.75 4 2 C4.75 4.125 4.75 4.125 5 6 C3.375 7.625 3.375 7.625 1 9 C-2.25 8.1875 -2.25 8.1875 -5 7 C-5 6.67 -5 6.34 -5 6 C-3.02 6 -1.04 6 1 6 C0.67 4.02 0.34 2.04 0 0 Z " fill="#3A6EB7" transform="translate(186,133)"/>
<path d="M0 0 C-0.73605469 0.53109375 -1.47210938 1.0621875 -2.23046875 1.609375 C-3.20628906 2.31578125 -4.18210937 3.0221875 -5.1875 3.75 C-6.63189453 4.79414062 -6.63189453 4.79414062 -8.10546875 5.859375 C-10.79129214 7.84565195 -13.40666793 9.89499188 -16 12 C-13.89613689 7.64199784 -12.35118901 5.17559451 -8 3 C-7.34 2.01 -6.68 1.02 -6 0 C-3 -1 -3 -1 0 0 Z " fill="#2B6593" transform="translate(67,123)"/>
<path d="M0 0 C0.99 0.33 1.98 0.66 3 1 C1.47549821 6.80054339 0.34673609 10.67635324 -5 14 C-5 11 -5 11 -3.0625 8.6875 C-0.76030772 5.6876737 -0.34552952 3.71444231 0 0 Z " fill="#69B3F0" transform="translate(106,116)"/>
<path d="M0 0 C-3.09773244 0.84062397 -5.78332751 1.08935201 -9 1 C-9 1.33 -9 1.66 -9 2 C-10.65 2 -12.3 2 -14 2 C-14 1.01 -14 0.02 -14 -1 C-8.93094113 -4.10684253 -5.07767373 -2.05761942 0 0 Z " fill="#3776A7" transform="translate(93,167)"/>
<path d="M0 0 C1 2 1 2 0.25 4.4375 C-0.95343114 6.90453383 -2.00910377 8.17501179 -4 10 C-4.99 11.485 -4.99 11.485 -6 13 C-6.66 13 -7.32 13 -8 13 C-6.40956621 7.91061189 -3.2553049 4.12543357 0 0 Z " fill="#59A1D7" transform="translate(53,138)"/>
<path d="M0 0 C0.99 0.33 1.98 0.66 3 1 C3 3.97 3 6.94 3 10 C2.01 10 1.02 10 0 10 C0 6.7 0 3.4 0 0 Z " fill="#5E98CE" transform="translate(176,167)"/>
<path d="M0 0 C2.97 0 5.94 0 9 0 C8.67 2.31 8.34 4.62 8 7 C7.67 5.68 7.34 4.36 7 3 C4.36 3 1.72 3 -1 3 C-0.67 2.01 -0.34 1.02 0 0 Z " fill="#3265C6" transform="translate(367,151)"/>
<path d="M0 0 C3 4 3 4 2.6875 7.75 C2.460625 8.8225 2.23375 9.895 2 11 C1.01 11 0.02 11 -1 11 C-0.67 7.37 -0.34 3.74 0 0 Z " fill="#396CB7" transform="translate(213,145)"/>
<path d="M0 0 C0.99 0.33 1.98 0.66 3 1 C3.66 4.3 4.32 7.6 5 11 C4.34 11 3.68 11 3 11 C1.68 7.7 0.36 4.4 -1 1 C-0.67 0.67 -0.34 0.34 0 0 Z " fill="#5D9CCB" transform="translate(185,167)"/>
<path d="M0 0 C1.32 0.33 2.64 0.66 4 1 C3.34 1 2.68 1 2 1 C2 1.66 2 2.32 2 3 C2.99 3 3.98 3 5 3 C5 3.99 5 4.98 5 6 C4.01 6.495 4.01 6.495 3 7 C3 7.66 3 8.32 3 9 C2.34 9 1.68 9 1 9 C0.67 6.03 0.34 3.06 0 0 Z " fill="#59A4DF" transform="translate(201,168)"/>
<path d="M0 0 C0.66 0.33 1.32 0.66 2 1 C-1 5 -4 9 -7 13 C-6.67 10.36 -6.34 7.72 -6 5 C-5.38125 4.9175 -4.7625 4.835 -4.125 4.75 C-1.81562433 4.18741541 -1.81562433 4.18741541 -0.75 1.9375 C-0.5025 1.298125 -0.255 0.65875 0 0 Z " fill="#2A6494" transform="translate(48,136)"/>
<path d="M0 0 C0.66 0.33 1.32 0.66 2 1 C-1.82180842 5.4008703 -4.47371099 6.80805531 -10 8 C-6.91367389 4.7373124 -4.06516496 1.97764782 0 0 Z " fill="#4790CB" transform="translate(76,120)"/>
<path d="M0 0 C0 3.61207397 -1.1151038 4.98416608 -3 8 C-3.33 8.99 -3.66 9.98 -4 11 C-4.99 10.67 -5.98 10.34 -7 10 C-6.40606618 8.70359622 -5.79942011 7.41301161 -5.1875 6.125 C-4.85105469 5.40570313 -4.51460937 4.68640625 -4.16796875 3.9453125 C-3 2 -3 2 0 0 Z " fill="#50A6ED" transform="translate(52,158)"/>
<path d="M0 0 C2.86724686 0.57344937 3.8614515 0.8614515 6 3 C5.34 3 4.68 3 4 3 C4 3.66 4 4.32 4 5 C2.68 5.33 1.36 5.66 0 6 C-0.66 5.01 -1.32 4.02 -2 3 C-1.34 3 -0.68 3 0 3 C0 2.01 0 1.02 0 0 Z " fill="#2E67C2" transform="translate(152,149)"/>
<path d="M0 0 C0.33 0.66 0.66 1.32 1 2 C-3.455 2.495 -3.455 2.495 -8 3 C-8 2.01 -8 1.02 -8 0 C-5.09660535 -1.45169732 -3.09125158 -0.72348441 0 0 Z " fill="#3EA1E9" transform="translate(66,133)"/>
<path d="M0 0 C2.31 0 4.62 0 7 0 C7.33 1.32 7.66 2.64 8 4 C5.03 4 2.06 4 -1 4 C-0.67 2.68 -0.34 1.36 0 0 Z " fill="#156FB7" transform="translate(31,119)"/>
<path d="M0 0 C1.41750563 0.11509661 2.83401169 0.24253658 4.25 0.375 C5.03890625 0.44460937 5.8278125 0.51421875 6.640625 0.5859375 C9.085877 1.01507113 10.84836903 1.78600638 13 3 C10.29120665 4.35439668 7.99066732 4.06501451 5 4 C5 3.34 5 2.68 5 2 C3.35 1.67 1.7 1.34 0 1 C0 0.67 0 0.34 0 0 Z " fill="#2E6CA2" transform="translate(92,162)"/>
<path d="M0 0 C0.99 0.33 1.98 0.66 3 1 C2.01 1.33 1.02 1.66 0 2 C0 4.31 0 6.62 0 9 C-1.32 7.68 -2.64 6.36 -4 5 C-2.25 1.125 -2.25 1.125 0 0 Z " fill="#4473AF" transform="translate(199,149)"/>
<path d="M0 0 C1.32 0 2.64 0 4 0 C4 4.29 4 8.58 4 13 C3.67 13 3.34 13 3 13 C2.67 9.37 2.34 5.74 2 2 C1.34 2 0.68 2 0 2 C0 1.34 0 0.68 0 0 Z " fill="#2479C1" transform="translate(56,185)"/>
<path d="M0 0 C0.66 0 1.32 0 2 0 C2 2.31 2 4.62 2 7 C1.01 7 0.02 7 -1 7 C-1.66 5.02 -2.32 3.04 -3 1 C-2.01 1 -1.02 1 0 1 C0 0.67 0 0.34 0 0 Z " fill="#4074A0" transform="translate(35,162)"/>
<path d="M0 0 C2.5625 2.125 2.5625 2.125 5 5 C4.8125 8.3125 4.8125 8.3125 4 11 C2.03698408 7.49461443 1.04097612 3.86648272 0 0 Z " fill="#3E70B2" transform="translate(188,144)"/>
<path d="M0 0 C-0.165 0.598125 -0.33 1.19625 -0.5 1.8125 C-1.1114124 4.11344336 -1.1114124 4.11344336 -1 7 C-2.32 7 -3.64 7 -5 7 C-5.1875 4.625 -5.1875 4.625 -5 2 C-2 0 -2 0 0 0 Z " fill="#8AC2F1" transform="translate(109,105)"/>
<path d="M0 0 C1.32 0.99 2.64 1.98 4 3 C4.66 2.34 5.32 1.68 6 1 C5.125 5.75 5.125 5.75 4 8 C3.34 8 2.68 8 2 8 C1.34 5.36 0.68 2.72 0 0 Z " fill="#4C95C8" transform="translate(114,170)"/>
<path d="M0 0 C2.5654594 2.5654594 2.54046087 4.47686668 3 8 C0.36 8 -2.28 8 -5 8 C-5 7.67 -5 7.34 -5 7 C-3.35 7 -1.7 7 0 7 C0 4.69 0 2.38 0 0 Z " fill="#4172AD" transform="translate(353,151)"/>
<path d="M0 0 C0.66 0.66 1.32 1.32 2 2 C0.75 4 0.75 4 -1 6 C-2.32 6 -3.64 6 -5 6 C-3.63016497 2.83884224 -3.0109362 2.0072908 0 0 Z " fill="#1F649B" transform="translate(105,193)"/>
<path d="M0 0 C3 1 3 1 5 4 C5 4.99 5 5.98 5 7 C2 6 2 6 0 3 C0 2.01 0 1.02 0 0 Z M5 3 C7 4 7 4 7 4 Z " fill="#2779BD" transform="translate(49,192)"/>
<path d="M0 0 C2.475 0.495 2.475 0.495 5 1 C5 3.31 5 5.62 5 8 C4.34 8 3.68 8 3 8 C2.67 6.02 2.34 4.04 2 2 C1.34 2 0.68 2 0 2 C0 1.34 0 0.68 0 0 Z " fill="#5C9ED7" transform="translate(153,168)"/>
<path d="M0 0 C5.03985731 0.44469329 7.37634988 2.71343362 11 6 C10.67 6.66 10.34 7.32 10 8 C9.34 8 8.68 8 8 8 C6.65576661 6.34211215 5.32381517 4.67423683 4 3 C1.87396815 1.23676495 1.87396815 1.23676495 0 0 Z " fill="#4190D4" transform="translate(93,168)"/>
<path d="M0 0 C1.485 0.99 1.485 0.99 3 2 C5.15274948 1.69159401 5.15274948 1.69159401 7 1 C7 1.99 7 2.98 7 4 C5.02 4.99 5.02 4.99 3 6 C3 5.34 3 4.68 3 4 C2.01 3.67 1.02 3.34 0 3 C0 2.01 0 1.02 0 0 Z " fill="#2187DA" transform="translate(64,161)"/>
<path d="M0 0 C0.99 0 1.98 0 3 0 C2.6875 2.875 2.6875 2.875 2 6 C1.01 6.66 0.02 7.32 -1 8 C-1 4.88742431 -0.82638376 2.89234315 0 0 Z " fill="#73BCF6" transform="translate(123,128)"/>
<path d="M0 0 C1.65 0.33 3.3 0.66 5 1 C4.67 2.98 4.34 4.96 4 7 C2.35 5.35 0.7 3.7 -1 2 C-0.67 1.34 -0.34 0.68 0 0 Z " fill="#2183D0" transform="translate(101,169)"/>
<path d="M0 0 C0.99 0 1.98 0 3 0 C3 2.31 3 4.62 3 7 C2.34 7 1.68 7 1 7 C0.67 4.69 0.34 2.38 0 0 Z " fill="#3270C1" transform="translate(350,148)"/>
<path d="M0 0 C0.99 0.33 1.98 0.66 3 1 C1.25 3.0625 1.25 3.0625 -1 5 C-3.25 4.75 -3.25 4.75 -5 4 C-2.6875 1.9375 -2.6875 1.9375 0 0 Z " fill="#5FAFF1" transform="translate(120,135)"/>
<path d="M0 0 C1.98 0 3.96 0 6 0 C5.67 1.32 5.34 2.64 5 4 C3.0625 3.6875 3.0625 3.6875 1 3 C0.67 2.01 0.34 1.02 0 0 Z " fill="#21659D" transform="translate(83,167)"/>
<path d="M0 0 C0.66 0.99 1.32 1.98 2 3 C2.66 3.33 3.32 3.66 4 4 C3.01 4.33 2.02 4.66 1 5 C1 5.66 1 6.32 1 7 C0.34 7 -0.32 7 -1 7 C-1.33 7.66 -1.66 8.32 -2 9 C-1.34 6.03 -0.68 3.06 0 0 Z " fill="#396BB6" transform="translate(334,143)"/>
<path d="M0 0 C2.91227269 3.28804981 4.49701212 5.59885603 5 10 C4.67 9.34 4.34 8.68 4 8 C3.34 8 2.68 8 2 8 C2 6.68 2 5.36 2 4 C1.34 4 0.68 4 0 4 C0 2.68 0 1.36 0 0 Z " fill="#3F70B9" transform="translate(293,135)"/>
<path d="M0 0 C0.33 0 0.66 0 1 0 C1.25 6.625 1.25 6.625 -1 10 C-2.23076923 4.58461538 -2.23076923 4.58461538 -1.0625 1.625 C-0.5365625 0.820625 -0.5365625 0.820625 0 0 Z " fill="#579ED9" transform="translate(44,175)"/>
<path d="M0 0 C0.66 0.33 1.32 0.66 2 1 C0.35 3.64 -1.3 6.28 -3 9 C-3.33 8.01 -3.66 7.02 -4 6 C-2.84338843 3.79192337 -1.77322566 1.77322566 0 0 Z " fill="#2C8AD6" transform="translate(52,160)"/>
<path d="M0 0 C0.99 0 1.98 0 3 0 C3 0.66 3 1.32 3 2 C3.66 2 4.32 2 5 2 C5.33 2.99 5.66 3.98 6 5 C5.01 5.33 4.02 5.66 3 6 C2.67 5.01 2.34 4.02 2 3 C1.34 2.67 0.68 2.34 0 2 C0 1.34 0 0.68 0 0 Z " fill="#2A6DC7" transform="translate(184,145)"/>
<path d="M0 0 C0.99 0 1.98 0 3 0 C2.67 1.65 2.34 3.3 2 5 C1.01 5 0.02 5 -1 5 C-0.67 3.35 -0.34 1.7 0 0 Z " fill="#3596E6" transform="translate(69,127)"/>
<path d="M0 0 C1.32 0.66 2.64 1.32 4 2 C4 2.66 4 3.32 4 4 C2.35 4.33 0.7 4.66 -1 5 C-0.67 3.35 -0.34 1.7 0 0 Z " fill="#3595D6" transform="translate(34,111)"/>
<path d="M0 0 C6.52307692 0.61538462 6.52307692 0.61538462 8.9375 2.5625 C9.288125 3.036875 9.63875 3.51125 10 4 C7.36 3.67 4.72 3.34 2 3 C2 2.34 2 1.68 2 1 C1.34 0.67 0.68 0.34 0 0 Z " fill="#82B3DB" transform="translate(109,106)"/>
</svg>
